# xmcd
#
# Track frame offsets:
#  150
#  8951
#  18232
#  27370
#  37376
#  48252
#  61912
#  74009
#  84452
#  95773
#  106428
#  118962
#  129850
#  138256
#  147163
#  159154
#  164223
#  171563
#  181175
#  189539
#
# Disc length: 2638 seconds
#
# Revision: 0
# Processed by: cddbd v1.5.1PL2 Copyright (c) Steve Scherf et al.
# Submitted via: Collectorz.com_Music_Collector 6.9
#
DISCID=210a4c14
DTITLE=Varouis - Swing West! Vol. 2
DYEAR=1969
DGENRE=Country
TTITLE0=01 - Little Rock Getaway - Jimmy Bryant
TTITLE1=02 - Champagne - Merle Haggard and The Strangers
TTITLE2=03 - Cannonball Rag - Merle Travis
TTITLE3=04 - Chicken Reel - Les Paul
TTITLE4=05 - Wildwood Flower - Hank Thompson and His Brazos Valley Boys with Merle Travis
TTITLE5=06 - Fool Such As I - Tut Taylor with Clarence White
TTITLE6=07 - Fire on the Strings - Joe Maphis (Knig of the Strings)
TTITLE7=08 - T-Bone Rag - Speedy West and Jimmy Bryant
TTITLE8=09 - Merle's Boogie Woogie - Merle Travis
TTITLE9=10 - Caravan - Ferlin Husky
TTITLE10=11 - A Smooth One - Roy Lanham
TTITLE11=12 - Blast Off - Merle Travis and Joe Maphis
TTITLE12=13 - Corn Pickin' - James Burton and Ralph Mooney
TTITLE13=14 - 12-String Special - Glen Campbell
TTITLE14=15 - Dented Fender - Roy Clark
TTITLE15=16 - Lover - Jimmy Bryant and Speedy West
TTITLE16=17 - San Antonio Rose - Les Paul
TTITLE17=18 - Alabama Jubilee - Roy Clark
TTITLE18=19 - Swing High - Merle Haggard and The Strangers
TTITLE19=20 - Water Baby Blues - Speedy West with Jimmy Bryant
EXTD=
EXTT0=
EXTT1=
EXTT2=
EXTT3=
EXTT4=
EXTT5=
EXTT6=
EXTT7=
EXTT8=
EXTT9=
EXTT10=
EXTT11=
EXTT12=
EXTT13=
EXTT14=
EXTT15=
EXTT16=
EXTT17=
EXTT18=
EXTT19=
PLAYORDER=
